<svg xmlns="http://www.w3.org/2000/svg" version="1.1" xmlns:xlink="http://www.w3.org/1999/xlink" xmlns:svgjs="http://svgjs.dev/svgjs" width="1000" height="1000" viewBox="0 0 1000 1000"><rect width="1000" height="1000" fill="#000000"></rect><g transform="matrix(0.7,0,0,0.7,149.57575757575756,282.1265587044535)"><svg viewBox="0 0 396 247" data-background-color="#ffffff" preserveAspectRatio="xMidYMid meet" height="623" width="1000" xmlns="http://www.w3.org/2000/svg" xmlns:xlink="http://www.w3.org/1999/xlink"><g id="tight-bounds" transform="matrix(1,0,0,1,0.2400000000000091,-0.09999999999999432)"><svg viewBox="0 0 395.52 247.2" height="247.2" width="395.52"><g><svg></svg></g><g><svg viewBox="0 0 395.52 247.2" height="247.2" width="395.52"><mask id="9bea3aa6-2004-4b02-8648-30774d768e9d"><rect width="640" height="400" fill="white"></rect><g transform="matrix(1,0,0,1,92.288,86.10862518968133)"><svg viewBox="0 0 210.944 74.98274962063732" height="74.98274962063732" width="210.944"><g><svg viewBox="0 0 210.944 74.98274962063732" height="74.98274962063732" width="210.944"><g><svg viewBox="0 0 210.944 74.98274962063732" height="74.98274962063732" width="210.944"><g><svg viewBox="0 0 210.944 74.98274962063732" height="74.98274962063732" width="210.944"><g id="SvgjsG1158"><svg viewBox="0 0 210.944 74.98274962063732" height="74.98274962063732" width="210.944" id="SvgjsSvg1157"><g><svg viewBox="0 0 210.944 74.98274962063732" height="74.98274962063732" width="210.944"><g transform="matrix(1,0,0,1,0,0)"><svg width="210.944" viewBox="-6.55 -33.25 132.79 47.85" height="74.98274962063732" data-palette-color="#ffffff"><path d="M45.4-26.65L45.4-26.65Q45.15-26.65 40.05-27.45L40.05-27.45Q31.6-22.65 20.68-15.15 9.75-7.65 3-1.3L3-1.3Q10.65-2.15 18.55-2.85L18.55-2.85Q19.45-2.9 21.15-2.9L21.15-2.9Q27.4-2.9 31-1.7 34.6-0.5 34.6 1.5L34.6 1.5Q34.6 2.7 33.15 4.15L33.15 4.15Q31.25 5.9 30.55 5.9L30.55 5.9Q30.3 5.9 30.3 5.48 30.3 5.05 30.88 4.53 31.45 4 31.45 3.55L31.45 3.55Q31.45 2 26.8 0.7L26.8 0.7Q21.95-0.7 17.7-0.7 13.45-0.7 7.83 0.13 2.2 0.95-1.05 0.95L-1.05 0.95Q-1.25 0.95-1.4 0.95L-1.4 0.95Q-2.2 1.65-2.4 1.65L-2.4 1.65Q-2.5 1.65-2.5 1.48-2.5 1.3-2.2 0.8L-2.2 0.8Q-4.05 0.7-4.05-0.25L-4.05-0.25Q-4.05-1-3.25-1.8-2.45-2.6-1.85-2.6L-1.85-2.6Q-1.75-2.6-1.65-2.5L-1.65-2.5Q-1.4-2.1 0.5-1.8L0.5-1.8Q13.15-15 36.75-27.95L36.75-27.95 35.25-28.25Q31.7-29.05 26.1-29.05 20.5-29.05 16.35-27.55L16.35-27.55Q15.45-27.35 13.65-26.45L13.65-26.45Q10.75-25 10.75-23L10.75-23Q10.75-22.7 10.88-22.28 11-21.85 10.85-21.6L10.85-21.6Q10.65-21.3 10.18-21.3 9.7-21.3 9.28-22 8.85-22.7 8.85-23.5 8.85-24.3 9.1-25.15L9.1-25.15Q10.05-28.35 15.25-29.85L15.25-29.85Q17.9-30.6 24.13-30.6 30.35-30.6 36.45-29.5L36.45-29.5Q37.2-29.45 38.95-29.05L38.95-29.05 41.7-30.55Q42.1-30.75 43.45-30.75 44.8-30.75 44.8-30.25L44.8-30.25Q44.8-30.05 44.35-29.9L44.35-29.9Q44.15-29.75 41.8-28.45L41.8-28.45Q44.05-28.3 44.58-28.3 45.1-28.3 45.53-28.55 45.95-28.8 45.83-29.3 45.7-29.8 45.9-29.8L45.9-29.8Q46.2-29.8 46.63-29.13 47.05-28.45 47.05-27.9L47.05-27.9Q47.05-26.65 45.4-26.65ZM50-10.6L50-10.6Q50-8.85 46.65-4.75L46.65-4.75Q42.7 0.1 39.9 0.1L39.9 0.1 39.1 0.1Q37.8 0.1 37.05-1.25L37.05-1.25Q36.45-2.2 36.45-3.35L36.45-3.35Q36.45-6.35 40.82-11.78 45.2-17.2 47.9-17.2L47.9-17.2Q50.45-17.2 50.45-14.5L50.45-14.5Q50.45-13.8 50.2-12.7L50.2-12.7Q50.25-12.55 51.15-12.55 52.05-12.55 53.9-13.5L53.9-13.5Q53.85-12.65 49.95-11.05L49.95-11.05Q50-10.85 50-10.6ZM46.75-13.2L46.75-13.2Q45.05-13.2 41.92-9.2 38.8-5.2 38.8-3.3 38.8-1.4 40-1.4L40-1.4Q42.15-1.4 45.45-5.3 48.75-9.2 48.75-10.9L48.75-10.9Q47.95-11.35 46.75-13.2ZM54.85 2.95L57.15-2.4Q53.95-0.2 52.05-0.2L52.05-0.2Q49.6-0.2 49.6-2.9L49.6-2.9Q49.6-5 52.25-8.1L52.25-8.1Q54.6-10.7 56.9-12L56.9-12Q62.4-15.05 65.84-15.05L65.84-15.05Q66.95-15.05 67.2-14.2L67.2-14.2 67.2-12.6Q68.05-11.95 68.05-11.78 68.05-11.6 67.9-11.4L67.9-11.4 63.95-7.65Q60.2-3.8 58.8-0.6L58.8-0.6Q59.1-0.7 60.45-0.7 61.8-0.7 62.55 0.48 63.3 1.65 63.3 2.8L63.3 2.8Q63.3 5.2 61.2 8.45L61.2 8.45Q58.9 12.1 56.2 12.1L56.2 12.1Q53.6 12.1 53.6 8.25L53.6 8.25Q53.6 5.9 54.85 2.95L54.85 2.95ZM64.65-12.55L64.65-12.55Q62.1-12.55 56.97-9.22 51.85-5.9 51.15-2.45L51.15-2.45Q51.1-2.3 51.1-2.15L51.1-2.15Q51.1-1.2 52.3-1.2L52.3-1.2Q54.8-1.2 59-5.55L59-5.55 65.3-12.25Q65.2-12.55 64.65-12.55ZM58.3 0.45L58.3 0.45Q57.35 1.95 56.25 4.75 55.15 7.55 55.15 8.55 55.15 9.55 55.55 10.33 55.95 11.1 56.65 11.1L56.65 11.1Q58.5 11.1 59.9 7.9 61.3 4.7 61.3 3.1 61.3 1.5 60.6 1 59.9 0.5 58.3 0.45ZM81.59 0.3L81.59 0.3Q81.34 0.35 80.52 0.35 79.69 0.35 78.87-0.3 78.04-0.95 78.04-1.98 78.04-3 78.42-4.25 78.79-5.5 78.94-6.15L78.94-6.15Q73.19 0.55 69.94 0.55L69.94 0.55Q67.89 0.55 67.69-2L67.69-2Q67.69-2.2 67.69-2.35L67.69-2.35Q67.69-4.5 70.29-8.15L70.29-8.15Q68.84-6.85 67.34-5.15L67.34-5.15Q67.14-4.95 66.84-4.95L66.84-4.95Q66.64-4.95 66.64-5.2 66.64-5.45 67.09-6.05L67.09-6.05 73.99-14.15Q75.29-15.65 76.64-15.65 77.99-15.65 77.99-14.75L77.99-14.75Q77.99-14.4 77.69-14.1L77.69-14.1Q75.69-12.25 72.67-7.95 69.64-3.65 69.64-1.6L69.64-1.6Q69.64-0.7 70.24-0.7L70.24-0.7Q72.34-0.7 76.34-4.85L76.34-4.85Q77.74-6.25 81.54-11.03 85.34-15.8 86.54-15.8L86.54-15.8Q88.34-15.8 88.34-14.4L88.34-14.4Q88.34-13.9 86.24-11.5L86.24-11.5Q83.39-8.05 81.89-5.88 80.39-3.7 80.39-2.35 80.39-1 81.14-1L81.14-1Q81.49-1 81.94-1.2L81.94-1.2Q85.39-2.7 90.19-8.2L90.19-8.2Q90.49-8.55 90.79-8.55 91.09-8.55 91.09-8.22 91.09-7.9 90.74-7.5L90.74-7.5Q88.59-5 85.69-2.48 82.79 0.05 81.59 0.3ZM99.69-20.4Q100.44-20.4 101.12-19.93 101.79-19.45 101.79-18.8 101.79-18.15 101.17-17.68 100.54-17.2 99.79-17.2 99.04-17.2 98.42-17.75 97.79-18.3 97.79-19L97.79-19Q97.79-20.4 99.69-20.4L99.69-20.4ZM90.64 0.55L90.64 0.55Q88.09 0.55 88.09-2.75L88.09-2.75Q88.09-5.45 91.04-10.23 93.99-15 95.79-15.05L95.79-15.05Q96.29-15.05 96.92-14.65 97.54-14.25 97.54-13.85L97.54-13.85Q97.29-13.5 96.94-13.08 96.59-12.65 96.19-12.15 95.79-11.65 95.09-10.73 94.39-9.8 93.74-8.95L93.74-8.95Q89.99-4.1 89.99-2.27 89.99-0.45 91.24-0.45L91.24-0.45Q92.29-0.45 94.09-1.6L94.09-1.6Q98.29-4.2 100.74-7.3L100.74-7.3Q101.64-8.45 101.97-8.45 102.29-8.45 102.29-8.05 102.29-7.65 101.14-6.45 99.99-5.25 99.31-4.55 98.64-3.85 98.39-3.63 98.14-3.4 97.47-2.78 96.79-2.15 96.44-1.9 96.09-1.65 95.44-1.15 94.79-0.65 94.29-0.43 93.79-0.2 93.14 0.1L93.14 0.1Q92.09 0.55 90.64 0.55ZM118.24-2.2L118.24-2.2Q114.64 0.8 112.26 0.8 109.89 0.8 109.14-2.65L109.14-2.65Q108.89-4.05 108.79-6.85L108.79-6.85Q102.69-0.35 99.64 4.9L99.64 4.9Q99.49 5.1 99.24 5.1L99.24 5.1Q98.64 5.1 98.64 4.55L98.64 4.55Q98.64 4.4 98.74 4.3L98.74 4.3Q103.39-3.05 108.79-8.6L108.79-8.6Q108.99-15.45 109.04-16.3L109.04-16.3Q107.89-16.05 104.14-10.5L104.14-10.5Q102.29-7.7 100.89-6.2 99.49-4.7 99.21-4.48 98.94-4.25 98.66-4.25 98.39-4.25 98.39-4.5 98.39-4.75 99.99-6.53 101.59-8.3 104.24-12.33 106.89-16.35 108.04-17.4 109.19-18.45 110.19-18.45 111.19-18.45 111.64-18.18 112.09-17.9 111.96-17.23 111.84-16.55 111.76-16.05 111.69-15.55 111.64-14.9L111.64-14.9Q111.34-12.55 111.29-11.05L111.29-11.05Q113.74-13.4 122.34-20.7L122.34-20.7Q122.44-20.8 122.69-20.8 122.94-20.8 123.34-20.38 123.74-19.95 123.74-19.53 123.74-19.1 123.34-18.7L123.34-18.7Q121.74-17.4 117.76-14.53 113.79-11.65 111.19-9.25L111.19-9.25Q111.14-8.2 111.14-6.4 111.14-4.6 111.59-3.1L111.59-3.1Q112.19-1.15 113.79-1.15L113.79-1.15Q116.64-1.15 122.59-8L122.59-8Q123.09-8.5 123.34-8.5 123.59-8.5 123.59-8.18 123.59-7.85 123.19-7.4L123.19-7.4Q120.09-3.75 118.24-2.2Z" opacity="1" transform="matrix(1,0,0,1,0,0)" fill="black" class="wordmark-text-0" id="SvgjsPath1156" stroke-width="4" stroke="black" stroke-linejoin="round"></path></svg></g></svg></g></svg></g></svg></g></svg></g></svg></g></svg></g></mask><g transform="matrix(1,0,0,1,92.288,86.10862518968133)"><svg viewBox="0 0 210.944 74.98274962063732" height="74.98274962063732" width="210.944"><g><svg viewBox="0 0 210.944 74.98274962063732" height="74.98274962063732" width="210.944"><g><svg viewBox="0 0 210.944 74.98274962063732" height="74.98274962063732" width="210.944"><g><svg viewBox="0 0 210.944 74.98274962063732" height="74.98274962063732" width="210.944"><g id="textblocktransform"><svg viewBox="0 0 210.944 74.98274962063732" height="74.98274962063732" width="210.944" id="textblock"><g><svg viewBox="0 0 210.944 74.98274962063732" height="74.98274962063732" width="210.944"><g transform="matrix(1,0,0,1,0,0)"><svg width="210.944" viewBox="-6.55 -33.25 132.79 47.85" height="74.98274962063732" data-palette-color="#ffffff"><path d="M45.4-26.65L45.4-26.65Q45.15-26.65 40.05-27.45L40.05-27.45Q31.6-22.65 20.68-15.15 9.75-7.65 3-1.3L3-1.3Q10.65-2.15 18.55-2.85L18.55-2.85Q19.45-2.9 21.15-2.9L21.15-2.9Q27.4-2.9 31-1.7 34.6-0.5 34.6 1.5L34.6 1.5Q34.6 2.7 33.15 4.15L33.15 4.15Q31.25 5.9 30.55 5.9L30.55 5.9Q30.3 5.9 30.3 5.48 30.3 5.05 30.88 4.53 31.45 4 31.45 3.55L31.45 3.55Q31.45 2 26.8 0.7L26.8 0.7Q21.95-0.7 17.7-0.7 13.45-0.7 7.83 0.13 2.2 0.95-1.05 0.95L-1.05 0.95Q-1.25 0.95-1.4 0.95L-1.4 0.95Q-2.2 1.65-2.4 1.65L-2.4 1.65Q-2.5 1.65-2.5 1.48-2.5 1.3-2.2 0.8L-2.2 0.8Q-4.05 0.7-4.05-0.25L-4.05-0.25Q-4.05-1-3.25-1.8-2.45-2.6-1.85-2.6L-1.85-2.6Q-1.75-2.6-1.65-2.5L-1.65-2.5Q-1.4-2.1 0.5-1.8L0.5-1.8Q13.15-15 36.75-27.95L36.75-27.95 35.25-28.25Q31.7-29.05 26.1-29.05 20.5-29.05 16.35-27.55L16.35-27.55Q15.45-27.35 13.65-26.45L13.65-26.45Q10.75-25 10.75-23L10.75-23Q10.75-22.7 10.88-22.28 11-21.85 10.85-21.6L10.85-21.6Q10.65-21.3 10.18-21.3 9.7-21.3 9.28-22 8.85-22.7 8.85-23.5 8.85-24.3 9.1-25.15L9.1-25.15Q10.05-28.35 15.25-29.85L15.25-29.85Q17.9-30.6 24.13-30.6 30.35-30.6 36.45-29.5L36.45-29.5Q37.2-29.45 38.95-29.05L38.95-29.05 41.7-30.55Q42.1-30.75 43.45-30.75 44.8-30.75 44.8-30.25L44.8-30.25Q44.8-30.05 44.35-29.9L44.35-29.9Q44.15-29.75 41.8-28.45L41.8-28.45Q44.05-28.3 44.58-28.3 45.1-28.3 45.53-28.55 45.95-28.8 45.83-29.3 45.7-29.8 45.9-29.8L45.9-29.8Q46.2-29.8 46.63-29.13 47.05-28.45 47.05-27.9L47.05-27.9Q47.05-26.65 45.4-26.65ZM50-10.6L50-10.6Q50-8.85 46.65-4.75L46.65-4.75Q42.7 0.1 39.9 0.1L39.9 0.1 39.1 0.1Q37.8 0.1 37.05-1.25L37.05-1.25Q36.45-2.2 36.45-3.35L36.45-3.35Q36.45-6.35 40.82-11.78 45.2-17.2 47.9-17.2L47.9-17.2Q50.45-17.2 50.45-14.5L50.45-14.5Q50.45-13.8 50.2-12.7L50.2-12.7Q50.25-12.55 51.15-12.55 52.05-12.55 53.9-13.5L53.9-13.5Q53.85-12.65 49.95-11.05L49.95-11.05Q50-10.85 50-10.6ZM46.75-13.2L46.75-13.2Q45.05-13.2 41.92-9.2 38.8-5.2 38.8-3.3 38.8-1.4 40-1.4L40-1.4Q42.15-1.4 45.45-5.3 48.75-9.2 48.75-10.9L48.75-10.9Q47.95-11.35 46.75-13.2ZM54.85 2.95L57.15-2.4Q53.95-0.2 52.05-0.2L52.05-0.2Q49.6-0.2 49.6-2.9L49.6-2.9Q49.6-5 52.25-8.1L52.25-8.1Q54.6-10.7 56.9-12L56.9-12Q62.4-15.05 65.84-15.05L65.84-15.05Q66.95-15.05 67.2-14.2L67.2-14.2 67.2-12.6Q68.05-11.95 68.05-11.78 68.05-11.6 67.9-11.4L67.9-11.4 63.95-7.65Q60.2-3.8 58.8-0.6L58.8-0.6Q59.1-0.7 60.45-0.7 61.8-0.7 62.55 0.48 63.3 1.65 63.3 2.8L63.3 2.8Q63.3 5.2 61.2 8.45L61.2 8.45Q58.9 12.1 56.2 12.1L56.2 12.1Q53.6 12.1 53.6 8.25L53.6 8.25Q53.6 5.9 54.85 2.95L54.85 2.95ZM64.65-12.55L64.65-12.55Q62.1-12.55 56.97-9.22 51.85-5.9 51.15-2.45L51.15-2.45Q51.1-2.3 51.1-2.15L51.1-2.15Q51.1-1.2 52.3-1.2L52.3-1.2Q54.8-1.2 59-5.55L59-5.55 65.3-12.25Q65.2-12.55 64.65-12.55ZM58.3 0.45L58.3 0.45Q57.35 1.95 56.25 4.75 55.15 7.55 55.15 8.55 55.15 9.55 55.55 10.33 55.95 11.1 56.65 11.1L56.65 11.1Q58.5 11.1 59.9 7.9 61.3 4.7 61.3 3.1 61.3 1.5 60.6 1 59.9 0.5 58.3 0.45ZM81.59 0.3L81.59 0.3Q81.34 0.35 80.52 0.35 79.69 0.35 78.87-0.3 78.04-0.95 78.04-1.98 78.04-3 78.42-4.25 78.79-5.5 78.94-6.15L78.94-6.15Q73.19 0.55 69.94 0.55L69.94 0.55Q67.89 0.55 67.69-2L67.69-2Q67.69-2.2 67.69-2.35L67.69-2.35Q67.69-4.5 70.29-8.15L70.29-8.15Q68.84-6.85 67.34-5.15L67.34-5.15Q67.14-4.95 66.84-4.95L66.84-4.95Q66.64-4.95 66.64-5.2 66.64-5.45 67.09-6.05L67.09-6.05 73.99-14.15Q75.29-15.65 76.64-15.65 77.99-15.65 77.99-14.75L77.99-14.75Q77.99-14.4 77.69-14.1L77.69-14.1Q75.69-12.25 72.67-7.95 69.64-3.65 69.64-1.6L69.64-1.6Q69.64-0.7 70.24-0.7L70.24-0.7Q72.34-0.7 76.34-4.85L76.34-4.85Q77.74-6.25 81.54-11.03 85.34-15.8 86.54-15.8L86.54-15.8Q88.34-15.8 88.34-14.4L88.34-14.4Q88.34-13.9 86.24-11.5L86.24-11.5Q83.39-8.05 81.89-5.88 80.39-3.7 80.39-2.35 80.39-1 81.14-1L81.14-1Q81.49-1 81.94-1.2L81.94-1.2Q85.39-2.7 90.19-8.2L90.19-8.2Q90.49-8.55 90.79-8.55 91.09-8.55 91.09-8.22 91.09-7.9 90.74-7.5L90.74-7.5Q88.59-5 85.69-2.48 82.79 0.05 81.59 0.3ZM99.69-20.4Q100.44-20.4 101.12-19.93 101.79-19.45 101.79-18.8 101.79-18.15 101.17-17.68 100.54-17.2 99.79-17.2 99.04-17.2 98.42-17.75 97.79-18.3 97.79-19L97.79-19Q97.79-20.4 99.69-20.4L99.69-20.4ZM90.64 0.55L90.64 0.55Q88.09 0.55 88.09-2.75L88.09-2.75Q88.09-5.45 91.04-10.23 93.99-15 95.79-15.05L95.79-15.05Q96.29-15.05 96.92-14.65 97.54-14.25 97.54-13.85L97.54-13.85Q97.29-13.5 96.94-13.08 96.59-12.65 96.19-12.15 95.79-11.65 95.09-10.73 94.39-9.8 93.74-8.95L93.74-8.95Q89.99-4.1 89.99-2.27 89.99-0.45 91.24-0.45L91.24-0.45Q92.29-0.45 94.09-1.6L94.09-1.6Q98.29-4.2 100.74-7.3L100.74-7.3Q101.64-8.45 101.97-8.45 102.29-8.45 102.29-8.05 102.29-7.65 101.14-6.45 99.99-5.25 99.31-4.55 98.64-3.85 98.39-3.63 98.14-3.4 97.47-2.78 96.79-2.15 96.44-1.9 96.09-1.65 95.44-1.15 94.79-0.65 94.29-0.43 93.79-0.2 93.14 0.1L93.14 0.1Q92.09 0.55 90.64 0.55ZM118.24-2.2L118.24-2.2Q114.64 0.8 112.26 0.8 109.89 0.8 109.14-2.65L109.14-2.65Q108.89-4.05 108.79-6.85L108.79-6.85Q102.69-0.35 99.64 4.9L99.64 4.9Q99.49 5.1 99.24 5.1L99.24 5.1Q98.64 5.1 98.64 4.55L98.64 4.55Q98.64 4.4 98.74 4.3L98.74 4.3Q103.39-3.05 108.79-8.6L108.79-8.6Q108.99-15.45 109.04-16.3L109.04-16.3Q107.89-16.05 104.14-10.5L104.14-10.5Q102.29-7.7 100.89-6.2 99.49-4.7 99.21-4.48 98.94-4.25 98.66-4.25 98.39-4.25 98.39-4.5 98.39-4.75 99.99-6.53 101.59-8.3 104.24-12.33 106.89-16.35 108.04-17.4 109.19-18.45 110.19-18.45 111.19-18.45 111.64-18.18 112.09-17.9 111.96-17.23 111.84-16.55 111.76-16.05 111.69-15.55 111.64-14.9L111.64-14.9Q111.34-12.55 111.29-11.05L111.29-11.05Q113.74-13.4 122.34-20.7L122.34-20.7Q122.44-20.8 122.69-20.8 122.94-20.8 123.34-20.38 123.74-19.95 123.74-19.53 123.74-19.1 123.34-18.7L123.34-18.7Q121.74-17.4 117.76-14.53 113.79-11.65 111.19-9.25L111.19-9.25Q111.14-8.2 111.14-6.4 111.14-4.6 111.59-3.1L111.59-3.1Q112.19-1.15 113.79-1.15L113.79-1.15Q116.64-1.15 122.59-8L122.59-8Q123.09-8.5 123.34-8.5 123.59-8.5 123.59-8.18 123.59-7.85 123.19-7.4L123.19-7.4Q120.09-3.75 118.24-2.2Z" opacity="1" transform="matrix(1,0,0,1,0,0)" fill="#ffffff" class="wordmark-text-0" data-fill-palette-color="primary" id="text-0"></path></svg></g></svg></g></svg></g></svg></g></svg></g></svg></g></svg></g><g mask="url(#9bea3aa6-2004-4b02-8648-30774d768e9d)"><g transform="matrix(2.452010553086257, 0, 0, 2.452010553086257, 123.95645162349402, 1)"><svg xmlns="http://www.w3.org/2000/svg" xmlns:xlink="http://www.w3.org/1999/xlink" version="1.1" x="0" y="0" viewBox="19.901786438161558 0 60.19839374966157 99.99956961497398" enable-background="new 0 0 100 100" xml:space="preserve" height="99.99956961497398" width="60.19839374966157" class="icon-none" data-fill-palette-color="accent" id="none"><path fill="#ffffff" d="M59.556 98.217c0.554-2.836 1.206-5.611 2.014-8.383 1.386-4.789 2.631-9.773 5.04-14.174 2.433-4.441 7.198-7.611 11.731-9.643 2.105-0.943-4.961-1.434-9.522-3.385-6.208-2.654-3.981-5.833-7.683-11.283 0 0-2.079-1.852 2.418-3.604 4.51-1.755 6.592-7.968 5.364-11.619-1.235-3.651-0.999-3.739-0.999-3.739s5.645-4.653 7.685-6.075c2.035-1.421 4.881-6.447 4.453-12.086-0.422-5.58-2.327-5.612-2.377-5.612 0 0 2.135 2.718 1.286 5.417-0.853 2.703-1.472 7.679-2.843 8.347 0.07-0.243 5.078-16.59-6.214-22.378 0 0 6.264 6.497 5.595 13.465-0.664 6.97-2.035 8.014-2.035 8.014s-1.003-2.75-8.44-3.508c0 0-4.317-6.735-5.408-7.206-1.091-0.478 3.085 4.978 2.421 5.972-0.663 0.997-6.829 1.518-13.087-2.039 0 0 2.748 4.125 10.902 5.025 8.156 0.902 12.942 2.227 12.279 4.555-0.664 2.324-0.664 3.173-5.83 5.78-5.084 2.565-7.42 4.4-7.496 4.459 0.023-0.071 0.593-1.702 0-1.563-0.607 0.142-1.321-0.525-2.221 2.088-0.899 2.607-2.232 0-6.786 4.5 0 0-1.327-0.566-3.268 0-1.946 0.566-1.421-2.465-0.241-5.55 1.174-3.032 5.506-7.903 5.645-8.054-0.142 0.062-3.967 1.808-8.107 7.251 0 0-2.323 0.188-1.469-1.141 0.855-1.324 5.836-17.021 5.645-19.862-0.188-2.847-1.135 4.645-3.748 7.632-2.604 2.987-1.94-3.035-1.896 4.123 0.051 7.163-2.468 7.163-2.609 7.163-0.139 0-3.698 0.283-4.12-2.468-0.428-2.722 1.245-23.567 1.277-23.983-0.086 0.204-2.899 6.856-3.409 15.025-0.528 8.297 0.186 8.53-0.858 8.722-1.041 0.188-6.349-0.855-6.207-3.462 0.139-2.605-0.87-14.774-1.124-16.324 0 0-0.637 14.891-0.637 15.608 0 0.713-2.846 0.631-3.247-1.982-0.396-2.613 0.401-4.435 0.401-4.435s-4.441 3.565 0.153 8.396c4.598 4.831 18.537 7.921 19.569 9.112 1.029 1.188-1.428 0.475-0.955 4.276 0.483 3.801-1.104 3.724-1.104 3.724s-4.677 0.794-4.04 5.624c0 0-4.361 4.754-6.021 6.102-1.663 1.345-2.377 1.345-2.136 2.055 0 0-5.016 2.76 0.045 6.432 0 0 0.613 2.652 4.432 2.516 3.822-0.129 2.483-0.891 3.209-1.055 0.729-0.166 10.009-0.467 10.654 0.047 0.644 0.512 4.981 16.23 7.157 19.74 2.183 3.51-0.565 2.465 0.378 9.387C54.12 101.084 59.013 101.031 59.556 98.217zM57.718 39.229c0.063 4.063-0.761 2.342-1.103 2.002-0.333-0.339-0.844-0.392-0.844-0.392C57.011 39.482 57.718 39.229 57.718 39.229z" data-fill-palette-color="accent"></path></svg></g></g></svg></g><defs></defs></svg><rect width="395.52" height="247.2" fill="none" stroke="none" visibility="hidden"></rect></g></svg></g></svg>